<svg xmlns="http://www.w3.org/2000/svg" viewBox="0 0 190.62 195.26"><defs><style>.cls-1{fill:#490080;}</style></defs><title>cloudy-sd</title><g id="Camada_2" data-name="Camada 2"><g id="Camada_3" data-name="Camada 3"><path class="cls-1" d="M147.45,45.95a78.82,78.82,0,0,0-28.71-17.73,87.42,87.42,0,0,0-29.38-5L45.1,24l.06,3.39,44.24-.79a83.79,83.79,0,0,1,29.48,5.21c29,10.86,48.59,37.72,48.59,70.79A76.53,76.53,0,0,1,158,140a72.16,72.16,0,0,1-8.26,11.91,74.76,74.76,0,0,1-30.88,21.5,83.82,83.82,0,0,1-29.45,5.21l-44.27-.78-.06,3.39,44.3.78a87.41,87.41,0,0,0,29.41-5,78.87,78.87,0,0,0,28.64-17.72,76.81,76.81,0,0,0,15-20.39,80.47,80.47,0,0,0,8.44-36.29C170.86,80.75,162.54,60.62,147.45,45.95Z"/><path class="cls-1" d="M125.26,54.3a16.56,16.56,0,0,1,10-.15,20.64,20.64,0,0,1,8.7,5.21l.91.9c.3.3.56.63.85,1l.84,1c.28.32.53.67.79,1s.53.67.78,1l.73,1c.51.68.91,1.44,1.36,2.16a24.21,24.21,0,0,1,2,4.68,11,11,0,0,1,.46,5,11.27,11.27,0,0,0-.69-5A24.12,24.12,0,0,0,150,67.57a41.2,41.2,0,0,0-6.28-7.86c-.3-.29-.58-.61-.91-.87l-1-.8a20.31,20.31,0,0,0-2-1.46,10.62,10.62,0,0,0-1.09-.62c-.37-.19-.73-.42-1.12-.57a20.71,20.71,0,0,0-2.34-.89,17.51,17.51,0,0,0-4.95-.82A16.12,16.12,0,0,0,125.26,54.3Z"/><path class="cls-1" d="M142.72,61.2c-5.68-5.68-12.64-7.92-15.56-5a3.9,3.9,0,0,0-.38.45,1.7,1.7,0,0,1,0,.4c0,.65-.35,1.17-.78,1.18-.85,3.45,1.49,8.92,6.11,13.53,5.68,5.68,12.64,7.92,15.56,5S148.4,66.88,142.72,61.2Zm4.48,14.06a.36.36,0,0,1-.68-.14c-.08-1.68-.64-5.24-3.44-11.11a.2.2,0,0,1,.32-.22C145.3,65.8,149.54,71,147.2,75.27Z"/><ellipse class="cls-1" cx="112.69" cy="75.91" rx="0.79" ry="1.18"/><ellipse class="cls-1" cx="156.69" cy="102.23" rx="0.79" ry="1.57"/><path class="cls-1" d="M122.12,127c0,1.52-1.31,2.75-2,2.75s.39-.84.39-2.36-1-3.14-.39-3.14S122.12,125.47,122.12,127Z"/><ellipse class="cls-1" cx="133.12" cy="154.49" rx="1.57" ry="1.18" transform="translate(-56.87 80.4) rotate(-27.95)"/><circle class="cls-1" cx="139.4" cy="106.95" r="0.79"/><ellipse class="cls-1" cx="107.6" cy="69.24" rx="1.96" ry="3.14" transform="translate(-17.37 41.79) rotate(-20.37)"/><ellipse class="cls-1" cx="118.58" cy="97.52" rx="1.18" ry="3.14"/><ellipse class="cls-1" cx="155.91" cy="127.77" rx="4.32" ry="2.36" transform="translate(-9.71 242.67) rotate(-74.09)"/><ellipse class="cls-1" cx="120.94" cy="157.24" rx="2.36" ry="1.18" transform="matrix(0.83, -0.56, 0.56, 0.83, -67.41, 95.01)"/><ellipse class="cls-1" cx="142.15" cy="98.3" rx="1.96" ry="3.93"/><circle class="cls-1" cx="114.82" cy="51.5" r="1.57"/><path class="cls-1" d="M142.94,93.2a2.31,2.31,0,0,1,1.52.69,4.18,4.18,0,0,1,.91,1.45,9.81,9.81,0,0,1,.55,3.35,7.41,7.41,0,0,1-.67,3.33,3.73,3.73,0,0,1-1.1,1.31,2.58,2.58,0,0,1-1.61.48,2.64,2.64,0,0,0,1.5-.62,3.58,3.58,0,0,0,1-1.3,7.62,7.62,0,0,0,.56-3.21,10.43,10.43,0,0,0-.46-3.25,4,4,0,0,0-.78-1.42A2.35,2.35,0,0,0,142.94,93.2Z"/><path class="cls-1" d="M146.48,128.18a.23.23,0,0,0-.42-.07c-5,8.17-9.93,7.42-12.91,5.75a3.68,3.68,0,0,1-1.73-2h0c-1.27-3.68.77-7.59,3.64-10.25,3.52-3.27,8.58-2.79,11.14,1.28A8.64,8.64,0,0,1,143.24,135c-.72.42-2.71,1.59-2.31.95C145.28,133.79,146.67,129.75,146.48,128.18Z"/><path class="cls-1" d="M149.27,125.07a10.2,10.2,0,0,1-.07,5.13,9.79,9.79,0,0,1-2.64,4.44,13.32,13.32,0,0,1-4.41,2.72,20.67,20.67,0,0,1-5,1.2l1.26-.28,1.24-.33,1.22-.38c.4-.15.8-.3,1.19-.46a13.59,13.59,0,0,0,4.26-2.72,9.78,9.78,0,0,0,2.63-4.26,11.32,11.32,0,0,0,.33-5.05Z"/><circle class="cls-1" cx="151.63" cy="166.34" r="9.88"/><circle class="cls-1" cx="135.52" cy="171.02" r="3.12"/><circle class="cls-1" cx="177.11" cy="171.02" r="3.12"/><circle class="cls-1" cx="142.79" cy="171.02" r="7.28"/><circle class="cls-1" cx="168.27" cy="170.5" r="7.8"/><circle class="cls-1" cx="156.31" cy="171.02" r="10.4"/><path class="cls-1" d="M188.39,114.37a3.14,3.14,0,0,0-1,.17c-.7-1.53-2.81-2.65-5.33-2.65a7.67,7.67,0,0,0-3.09.62,8.27,8.27,0,0,0-2.73-1.26,8.21,8.21,0,0,0-6.11-2.34c-3.29,0-6,1.49-6.84,3.51a5.56,5.56,0,0,0-4.23,2,3.3,3.3,0,0,0-.49,0c-1.24,0-2.24.67-2.24,1.49s1,1.49,2.24,1.49a3.3,3.3,0,0,0,.49,0,5.77,5.77,0,0,0,4.73,2,6.85,6.85,0,0,0,3.38-.85,8.76,8.76,0,0,0,6.32,2.34,9.12,9.12,0,0,0,5.92-2,7.78,7.78,0,0,0,2.66.47,6.14,6.14,0,0,0,5.12-2.23,3.07,3.07,0,0,0,1.22.24c1.24,0,2.24-.67,2.24-1.49S189.62,114.37,188.39,114.37Z"/><path d="M110.12,89.12a29,29,0,0,1,8.55,21v45a29.58,29.58,0,0,1-29.31,28.08H61.89v12.14L0,164.32l5.37-2.68,41.55-20.77,15-7.49v11.48h3.86A14.57,14.57,0,0,0,80.4,130.21v3.07a14.57,14.57,0,0,0-14.65-14.65H33.59a27.93,27.93,0,0,1-20.76-8.75,29,29,0,0,1-8.55-21V41.31a29,29,0,0,1,8.55-21A28,28,0,0,1,33.59,11.6h28.3V0l23.2,11.6,29.71,14.85,9,4.49-6,3L76.53,54.57,61.89,61.89v-12H57.2a14.8,14.8,0,0,0-10.58,4.28,13.77,13.77,0,0,0-4.48,10.38v1.18a13.77,13.77,0,0,0,4.48,10.38A14.8,14.8,0,0,0,57.2,80.37H89.35A27.92,27.92,0,0,1,110.12,89.12Z"/></g></g></svg>