<svg id="Camada_1" data-name="Camada 1" xmlns="http://www.w3.org/2000/svg" viewBox="0 0 540.9 338.06"><defs><style>.cls-1{fill:#00c08b;}.cls-2{fill:#fff;}.cls-3{fill:#201747;}</style></defs><path class="cls-1" d="M156.65,152.35,71.22,170.76a15.69,15.69,0,0,1-19-15.33V135.52a15.7,15.7,0,0,1,12.38-15.34l85.44-18.4a15.68,15.68,0,0,1,19,15.33V137A15.69,15.69,0,0,1,156.65,152.35Z"/><path class="cls-1" d="M148.59,214.15,44.16,236.65V197.31A15.69,15.69,0,0,1,56.55,182L142,163.57a15.69,15.69,0,0,1,19,15.34v19.91A15.69,15.69,0,0,1,148.59,214.15Z"/><path class="cls-2" d="M152.41,145.2l-14.18,3.06a10.85,10.85,0,0,1-13.13-10.6V124a10.85,10.85,0,0,1,8.56-10.6l14.18-3.05A10.84,10.84,0,0,1,161,120.92V134.6A10.85,10.85,0,0,1,152.41,145.2Z"/><path class="cls-2" d="M79.54,221l-27.31,5.88V199.73a10.84,10.84,0,0,1,8.56-10.6l14.18-3a10.84,10.84,0,0,1,13.13,10.6v13.68A10.85,10.85,0,0,1,79.54,221Z"/><path class="cls-3" d="M382.32,133.24c-6.4,0-11.61-4.9-11.61-10.93s5.21-10.92,11.61-10.92a11.82,11.82,0,0,1,9.5,4.65l11-2.37a22.72,22.72,0,0,0-20.51-12.21c-12.42,0-22.54,9.35-22.54,20.85s10.12,20.86,22.54,20.86A22.72,22.72,0,0,0,402.79,131l-11-2.37A11.86,11.86,0,0,1,382.32,133.24Z"/><path class="cls-3" d="M206.4,129.38c.72,2,3,4.33,7,4.81,4.26.52,7.83-.8,8-2.75s-.81-3-5.9-4.61l-.48-.15-.14-.05h0l-1.32-.4c-.72-.21-1.36-.4-1.92-.58l-.88-.28c-3.71-1.16-13.57-4.22-12.8-12.81.69-7.7,8.68-11.2,15.81-11.2,7.8,0,13.61,3.11,16.37,8.75l-10.7,2.31c-1.09-1.36-3-2.33-6.13-2.33-3.81,0-8.86,2.51-2,5.06h0c.74.29,1.68.63,2.88,1l1.08.34c.44.14,1,.3,1.53.46,4.76,1.39,14.65,4.28,14.94,13.43a10.83,10.83,0,0,1-3.78,8.52c-3.13,2.81-7.88,4.39-13.14,4.39l-1.06,0c-8.63-.34-15.63-4.92-17.82-11.66Z"/><path class="cls-3" d="M466.37,195.52c.72,2,3.05,4.33,7,4.81,4.26.52,7.83-.8,8-2.75s-.8-3-5.89-4.61l-.48-.15-.15,0h0l-1.33-.4-1.91-.58-.88-.28c-3.71-1.16-13.57-4.22-12.8-12.81.69-7.7,8.68-11.2,15.81-11.2,7.8,0,13.61,3.11,16.37,8.75l-10.7,2.31c-1.1-1.36-3-2.33-6.13-2.33-3.81,0-8.86,2.51-2,5.06h0c.74.29,1.68.63,2.88,1l1.08.34c.44.14,1,.3,1.53.46,4.75,1.39,14.65,4.28,14.94,13.43a10.83,10.83,0,0,1-3.78,8.52c-3.14,2.81-7.89,4.39-13.14,4.39l-1.06,0c-8.63-.34-15.63-4.92-17.82-11.66Z"/><path class="cls-3" d="M305.09,102.21l-21.45,40.24h-9l-5.61-13-5.61,13h-9L233,102.21h11.8l13.64,26.84,4.7-9.24-8.94-17.6H266l3.05,8,3-8h11.8L275,119.81l4.7,9.24,13.64-26.84Z"/><path class="cls-3" d="M308.83,91.93a6.34,6.34,0,1,1,6.34,6.34A6.33,6.33,0,0,1,308.83,91.93Zm.87,50.52V102.21h10.93v40.24Z"/><path class="cls-3" d="M345.08,111.15v15.76c0,4.44.32,5.09,1.35,5.93,1.38,1.11,5.89.79,9.26.25v10a52.48,52.48,0,0,1-5.25.3c-3.88,0-7.48-.6-10.35-2.45-5.22-3.38-5.94-8.75-5.94-14V111.15H325.9v-8.94h8.25v-9.7l10.93-2.36v12.06h10.61v8.94Z"/><path class="cls-3" d="M437.54,123.66v-1.34c0-.39,0-.74,0-1.11a12.87,12.87,0,0,0-.82-4,9.79,9.79,0,0,0-1.85-3.11,7.88,7.88,0,0,0-2.47-1.87,9,9,0,0,0-3.24-.86,13.35,13.35,0,0,0-2,0h-.05l-.32,0-.43,0c-5.76.67-8.93,4.86-8.93,9.66v21.37H406.47V86.11H417.4V107.3a14.32,14.32,0,0,1,10-5.67c.57-.07,1.13-.12,1.69-.14a19.16,19.16,0,0,1,8.19,1.41,16.92,16.92,0,0,1,6.57,4.88,19.08,19.08,0,0,1,3.43,6.43,25.23,25.23,0,0,1,1.1,6.55l.05,21.69H437.52V123.66Z"/><path class="cls-3" d="M240.24,152.25v56.36H229.31v-5.52a19.88,19.88,0,0,1-5.58,4.17,21.36,21.36,0,0,1-8.55,2.09,23.23,23.23,0,0,1-8.84-1.48,21.82,21.82,0,0,1-7.37-4.66,20.3,20.3,0,0,1,0-29.46,21.53,21.53,0,0,1,7.36-4.66,23.13,23.13,0,0,1,8.83-1.47,21.27,21.27,0,0,1,8.54,2.09,19.93,19.93,0,0,1,5.59,4.17V152.25ZM229.3,188.47a10.05,10.05,0,0,0-1.32-4.93,11.32,11.32,0,0,0-3.54-3.71,14,14,0,0,0-4.59-1.93,16.54,16.54,0,0,0-4.67-.38,13.3,13.3,0,0,0-8.11,3.33,10.73,10.73,0,0,0-2.6,3.46,9.63,9.63,0,0,0,0,8.32,11,11,0,0,0,2.6,3.46,13.43,13.43,0,0,0,8.1,3.32,16.45,16.45,0,0,0,4.66-.38,13.93,13.93,0,0,0,4.59-1.93,11.31,11.31,0,0,0,3.55-3.7A10,10,0,0,0,229.3,188.47Z"/><path class="cls-3" d="M275,178.58c-.13-.08-.26-.14-.39-.21a9,9,0,0,0-3.25-.86,13.32,13.32,0,0,0-2,0h0l-.32,0-.44.05c-5.76.67-8.92,4.86-8.92,9.66v21.37H248.76V168.35h10.93v5.09a14.32,14.32,0,0,1,10-5.67q.85-.11,1.68-.15a19,19,0,0,1,8.2,1.42c.28.12.55.24.82.38Z"/><path class="cls-3" d="M321.66,192.43v0H291.33c1.91,4.07,6.64,7,12.17,7a14.27,14.27,0,0,0,9.67-3.59l10.42,4.08c-4.39,5.83-11.88,9.44-20.09,9.44-13.24,0-24-9.36-24-20.87S289.61,167.6,302,167.6,324.6,177,324.6,188.47a19.29,19.29,0,0,1-.43,4Zm-8.8-7.94a11.89,11.89,0,0,0-21.63,0Z"/><path class="cls-3" d="M376.9,168.36V208.6H366v-5.52a19.83,19.83,0,0,1-5.57,4.17,21.2,21.2,0,0,1-8.55,2.09,23.35,23.35,0,0,1-8.84-1.47,21.75,21.75,0,0,1-7.37-4.67,20.31,20.31,0,0,1,0-29.46,21.7,21.7,0,0,1,7.37-4.65,23.1,23.1,0,0,1,8.83-1.47,21,21,0,0,1,8.54,2.09,19.88,19.88,0,0,1,5.59,4.17v-5.52ZM366,188.47a10.06,10.06,0,0,0-1.33-4.93,11.32,11.32,0,0,0-3.54-3.71,13.93,13.93,0,0,0-4.59-1.93,16.52,16.52,0,0,0-4.67-.38,13.3,13.3,0,0,0-8.11,3.33,10.73,10.73,0,0,0-2.6,3.46,10.45,10.45,0,0,0-.95,4.16,10.59,10.59,0,0,0,1,4.16,11,11,0,0,0,2.6,3.46,13.41,13.41,0,0,0,8.1,3.32,16.45,16.45,0,0,0,4.66-.38,13.93,13.93,0,0,0,4.59-1.93,11.42,11.42,0,0,0,3.55-3.7A10.06,10.06,0,0,0,366,188.47Z"/><path class="cls-3" d="M450.4,208.6H439.47c-.12-7-.06-14.07,0-21.11l0-2.52a15.62,15.62,0,0,0-.15-2,10.65,10.65,0,0,0-.44-1.79,8.54,8.54,0,0,0-.71-1.55,6.22,6.22,0,0,0-2-2.1,6.31,6.31,0,0,0-2.91-1,10,10,0,0,0-1.07-.08,3.05,3.05,0,0,0-.43,0h-.07a8.36,8.36,0,0,0-1.49.15c-4.5.75-6.86,4.32-6.89,9l0,.33,0,1.61v21.1H412.45c-.13-7-.07-14.07,0-21.1l0-2.53a14.07,14.07,0,0,0-.16-2,9.85,9.85,0,0,0-.43-1.78,8.54,8.54,0,0,0-.71-1.55,6.3,6.3,0,0,0-1.95-2.1,6.51,6.51,0,0,0-2.92-1c-.38,0-.74-.06-1.09-.08h-.49a7.81,7.81,0,0,0-1.44.14c-4.56.74-6.94,4.36-6.94,9v23H385.42V168.35h10.93v5.09s2.31-4.81,9.09-5.57c.29,0,.58-.06.87-.08a18.11,18.11,0,0,1,4.12.27,15.93,15.93,0,0,1,4.06,1.37,15,15,0,0,1,6,5.42c.25.39.47.79.68,1.19a.74.74,0,0,1,0-.14,12.86,12.86,0,0,1,4.52-5.62,14.93,14.93,0,0,1,7.61-2.49,18.14,18.14,0,0,1,4.12.27,16.2,16.2,0,0,1,4.06,1.37,15.06,15.06,0,0,1,6,5.42,18,18,0,0,1,1.61,3.27,20.11,20.11,0,0,1,.91,3.35,24.84,24.84,0,0,1,.33,3.26l0,2.76C450.46,194.52,450.52,201.55,450.4,208.6Z"/></svg>