<?xml version="1.0" encoding="UTF-8"?>
<svg data-bbox="0 0 1199.997 600" width="1200" height="600" viewBox="0 0 1200 600" xmlns="http://www.w3.org/2000/svg" data-type="color">
    <g>
        <path d="M0 600h1199.997V0H0z" fill="#ffffff" data-color="1"/>
        <path d="M1014.957 218.144c-60.571 43.666-126.79 81.505-198.145 112.374-35.262 15.252-73.268 25.8-113.294 30.804-28.463 3.558-57.448 5.347-86.843 5.347V600h583.322V84.53l-185.025 133.634-.017-.02" fill="#008940" data-color="2"/>
        <path d="M185.035 218.144c60.59 43.666 126.798 81.505 198.162 112.374 35.269 15.252 73.256 25.8 113.301 30.804 28.444 3.558 57.429 5.347 86.844 5.347V600H.002V84.53l185.026 133.634.01-.02" fill="#008940" data-color="2"/>
        <path d="M616.673 0v333.329c27.993 0 55.611-1.727 82.702-5.08 36.82-4.612 71.76-14.305 104.19-28.323 69.12-29.896 133.208-66.522 191.869-108.82v.01L1199.997 43.38V0H616.673" fill="#133e79" data-color="3"/>
        <path d="M583.344 0v333.329a672.79 672.79 0 01-82.702-5.08h-.01c-36.829-4.612-71.776-14.305-104.204-28.323-69.106-29.896-133.194-66.522-191.872-108.82v.01L.001 43.38V0h583.343" fill="#133e79" data-color="3"/>
    </g>
</svg>
